<svg width="84" height="84" viewBox="0 0 84 84" fill="none" xmlns="http://www.w3.org/2000/svg">
<path d="M76.6501 71.2769V5.72266L23.8535 28.3498H7.3501V48.6498H17.8501V59.4998C17.8501 62.3372 18.6754 66.5232 21.2438 70.0903C23.9278 73.8181 28.3735 76.6498 35.0001 76.6498C37.8375 76.6498 42.0235 75.8245 45.5907 73.2561C49.0767 70.7462 51.779 66.6957 52.1149 60.7618L76.6501 71.2769ZM45.8501 58.0769V59.4998C45.8501 64.0731 44.0151 66.6274 41.9095 68.1434C39.6434 69.7751 36.8294 70.3498 35.0001 70.3498C30.4267 70.3498 27.8724 68.5148 26.3564 66.4092C24.7248 64.143 24.1501 61.329 24.1501 59.4998V48.7769L45.8501 58.0769Z" fill="#584A5F"/>
</svg>
