<svg width="33" height="33" viewBox="0 0 33 33" fill="none" xmlns="http://www.w3.org/2000/svg">
<circle cx="16.5" cy="16.5" r="16.5" fill="#BC6E42"/>
<path d="M26 20.8334C26 21.2132 25.8889 21.5655 25.7109 21.8754L20.0277 15.7521L25.6494 11.0156C25.8682 11.3498 26 11.7425 26 12.1666C26 12.1666 26 20.8334 26 20.8334ZM17 16.8639L24.8222 10.2729C24.5014 10.1036 24.1398 10 23.7498 10H10.2499C9.85939 10 9.49791 10.1036 9.17824 10.2729L17 16.8639ZM19.1808 16.465L17.3703 17.9918C17.2641 18.0806 17.1323 18.125 17 18.125C16.8676 18.125 16.7358 18.0806 16.6297 17.9916L14.8187 16.465L9.06342 22.6667C9.40847 22.8752 9.81272 23 10.2499 23H23.7498C24.1873 23 24.5915 22.8752 24.9363 22.6667L19.1808 16.465ZM8.35055 11.0156C8.13183 11.3499 8 11.7425 8 12.1666V20.8334C8 21.2133 8.11038 21.5655 8.28889 21.8755L13.9716 15.7509L8.35055 11.0156Z" fill="white"/>
</svg>
