<?xml version="1.0" encoding="utf-8"?>
<!-- Generator: Adobe Illustrator 18.1.1, SVG Export Plug-In . SVG Version: 6.00 Build 0)  -->
<svg version="1.1" id="Layer_1" xmlns="http://www.w3.org/2000/svg" xmlns:xlink="http://www.w3.org/1999/xlink" x="0px" y="0px"
	 viewBox="0 0 32 32" enable-background="new 0 0 32 32" xml:space="preserve">
<g>
	<path fill="#0063C9" d="M15.98286,0.68786c-8.40138,0-15.22282,6.82151-15.22282,15.22282
		c0,8.41336,6.82144,15.2348,15.22282,15.2348c8.41329,0,15.2348-6.82144,15.2348-15.2348
		C31.21766,7.50937,24.39615,0.68786,15.98286,0.68786L15.98286,0.68786z M17.88875,23.5341
		c0,1.04923-0.8542,1.89391-1.90589,1.89391c-1.0493,0-1.89391-0.84468-1.89391-1.89391v-9.51734
		c0-1.05163,0.84461-1.90582,1.89391-1.90582c1.0517,0,1.90589,0.8542,1.90589,1.90582V23.5341z M15.98286,10.23366
		c-1.0493,0-1.89391-0.84701-1.89391-1.90575c0-1.0493,0.84461-1.89638,1.89391-1.89638c1.0517,0,1.90589,0.84708,1.90589,1.89638
		C17.88875,9.38665,17.03456,10.23366,15.98286,10.23366L15.98286,10.23366z M15.98286,10.23366"/>
</g>
</svg>
