<svg width="55" height="54" viewBox="0 0 55 54" fill="none" xmlns="http://www.w3.org/2000/svg">
<path opacity="0.9" d="M44.0468 54H10.9532C8.0492 53.9969 5.26506 52.8629 3.21163 50.8468C1.15819 48.8307 0.00317637 46.0971 0 43.2459L0 10.7541C0.00317637 7.90286 1.15819 5.16933 3.21163 3.15323C5.26506 1.13713 8.0492 0.00311862 10.9532 0L44.0468 0C46.9508 0.00311862 49.7349 1.13713 51.7884 3.15323C53.8418 5.16933 54.9968 7.90286 55 10.7541V43.2459C54.9968 46.0971 53.8418 48.8307 51.7884 50.8468C49.7349 52.8629 46.9508 53.9969 44.0468 54ZM34.5006 26.5096C37.2337 26.5096 38.6197 28.3387 38.6197 31.947V46.0353H46.8879V30.0736C46.9981 28.5641 46.7817 27.0488 46.2527 25.6273C45.7237 24.2058 44.8942 22.9104 43.8188 21.8262C42.0184 20.2718 39.6874 19.4409 37.2907 19.4993C35.7132 19.4836 34.1587 19.8716 32.7805 20.6252C31.4022 21.3787 30.2476 22.4718 29.4305 23.7968H29.3135V20.2327H21.3604V46.0236H29.6285V32.0412C29.5521 30.5125 30.0909 29.0156 31.1286 27.8733C31.567 27.4333 32.092 27.0854 32.6717 26.851C33.2515 26.6165 33.8737 26.5003 34.5006 26.5096ZM8.12415 20.2121V46.0029H16.3923V20.2121H8.12415ZM12.2582 7.31959C10.9995 7.31959 9.7923 7.81053 8.90223 8.68441C8.01217 9.55829 7.51214 10.7435 7.51214 11.9794C7.51214 13.2152 8.01217 14.4005 8.90223 15.2744C9.7923 16.1482 10.9995 16.6392 12.2582 16.6392C13.517 16.6392 14.7241 16.1482 15.6142 15.2744C16.5043 14.4005 17.0043 13.2152 17.0043 11.9794C17.0043 10.7435 16.5043 9.55829 15.6142 8.68441C14.7241 7.81053 13.517 7.31959 12.2582 7.31959Z" fill="#45364D"/>
</svg>
