<svg width="64" height="70" viewBox="0 0 64 70" fill="none" xmlns="http://www.w3.org/2000/svg">
<path fill-rule="evenodd" clip-rule="evenodd" d="M28.7183 35.7891C26.0458 34.5459 24.6044 32.2007 24.5744 29.1437C24.5744 26.3961 26.1058 23.9998 28.7484 22.5975C30.43 21.7146 33.4028 21.7146 35.0844 22.6035C36.9162 23.5554 38.4176 25.4022 38.9882 27.33C40.7298 33.2517 34.4538 38.4406 28.7784 35.7891H28.7183ZM18.2984 48.0498C15.1754 45.5574 12.4127 41.1372 11.2716 36.8011C10.581 34.1826 10.581 29.2038 11.3017 26.5913C13.1935 19.5406 18.3884 14.0753 25.5953 11.5079C28.0577 10.637 33.5229 10.4418 36.5558 11.1115C47.0058 13.4387 54.4229 23.9037 52.9815 34.2847C52.411 38.4677 50.9696 41.903 48.4172 45.095C47.156 46.7076 44.093 49.4131 43.5525 49.4131C43.4624 49.4131 43.3724 48.3922 43.3724 47.149V44.8788L44.9338 43.017C50.8195 35.9663 50.3991 26.1168 43.9729 19.6547C41.4805 17.1383 38.5978 15.6608 34.8742 14.9792C32.4719 14.5348 31.9614 14.5348 29.439 14.9492C25.6104 15.5738 22.6435 17.0572 20.01 19.6637C13.5538 26.0598 13.1334 35.9603 19.019 43.017L20.5685 44.8788V47.161C20.5685 48.4222 20.4694 49.4432 20.3463 49.4432C20.2262 49.4432 19.3554 48.8426 18.4245 48.0919L18.2984 48.0498ZM18.1782 60.2655C8.89936 55.7012 2.95367 47.9778 0.791603 37.7019C0.251086 35.0504 0.161 28.7233 0.671488 26.291C2.02278 19.7598 4.60525 14.6519 8.89936 10.1356C15.0853 3.61331 23.0429 0.166016 31.9014 0.166016C40.6698 0.166016 48.5973 3.55025 54.6331 9.87731C59.2275 14.6519 61.81 19.7057 63.1313 26.3631C63.5817 28.5792 63.5817 34.621 63.1613 37.1134C61.78 44.9929 57.3958 52.1698 50.9996 56.9924C48.7175 58.716 43.1321 61.7249 42.2313 61.7249C41.9009 61.7249 41.8709 61.3826 42.0211 59.9983C42.2913 57.7761 42.5616 57.3137 43.8228 56.7852C45.8347 55.9444 49.258 53.5064 51.36 51.398C54.9935 47.7946 57.666 43.0801 58.8972 38.1253C59.6779 35.0324 59.5879 28.1558 58.717 24.9728C55.9844 14.8531 47.7265 6.98554 37.6068 4.88353C34.664 4.28296 29.3189 4.28296 26.3461 4.88353C16.1063 6.98554 7.63815 15.2434 5.05568 25.6334C4.36502 28.4561 4.36502 35.3327 5.05568 38.1554C6.76732 45.032 11.2116 51.338 17.0371 55.0916C18.1782 55.8423 19.5596 56.623 20.1301 56.8633C21.3913 57.4038 21.6616 57.8542 21.9018 60.0763C22.0519 61.4276 22.0219 61.818 21.6916 61.818C21.4814 61.818 19.9499 61.1574 18.3284 60.3766L18.1782 60.2655ZM29.6582 69.3943C26.9707 68.4333 26.3941 67.1271 25.292 59.4728C24.0098 50.5753 23.7306 45.068 24.4723 43.3233C25.4572 41.0111 28.1298 39.6988 31.8683 39.6838C35.5769 39.6688 38.2735 40.9931 39.2644 43.3233C40.0091 45.065 39.7299 50.5753 38.4476 59.4728C37.5768 65.6887 37.0963 67.2592 35.8952 68.3162C34.2436 69.7786 31.9014 70.184 29.6792 69.3973L29.6582 69.3943Z" fill="#584A5F"/>
</svg>
