<?xml version="1.0" encoding="utf-8"?>
<!-- Generator: Adobe Illustrator 18.1.1, SVG Export Plug-In . SVG Version: 6.00 Build 0)  -->
<svg version="1.1" id="Layer_1" xmlns="http://www.w3.org/2000/svg" xmlns:xlink="http://www.w3.org/1999/xlink" x="0px" y="0px"
	 viewBox="0 0 32 32" enable-background="new 0 0 32 32" xml:space="preserve">
<g>
	<path d="M16.00284,9.18082c-3.61366,0-6.54263,2.80449-6.54263,6.26677c0,4.11088,2.854,5.15842,2.854,7.55056
		c0,0.59129,0.45053,1.14159,1.13028,1.54757c-0.14076,0.11602-0.2214,0.24547-0.2214,0.38126
		c0,0.18248,0.14359,0.35365,0.38972,0.50007c-0.22915,0.14359-0.36495,0.30697-0.36495,0.4838s0.13862,0.34517,0.37345,0.48876
		c-0.24048,0.14359-0.38124,0.31193-0.38124,0.49159c0,0.22138,0.20724,0.42297,0.55239,0.58566
		c-0.13225,0.12165-0.21005,0.25745-0.21005,0.39821c0,0.41731,0.65214,0.7738,1.5695,0.91738
		c0.15988,0.29848,0.48878,0.50573,0.87,0.50573c0.38124,0,0.70731-0.20724,0.86789-0.5029
		c0.92587-0.14145,1.58578-0.50007,1.58578-0.92021c0-0.13793-0.07425-0.27375-0.20441-0.39255
		c0.35365-0.16552,0.56375-0.3671,0.56375-0.58848c0-0.17968-0.1351-0.34517-0.37278-0.48876
		c0.23981-0.14641,0.38126-0.31547,0.38126-0.49441c0-0.18248-0.14359-0.35154-0.38972-0.49793
		c0.232-0.14359,0.36497-0.3091,0.36497-0.4831c0-0.14076-0.0863-0.27655-0.23766-0.3954
		c0.66842-0.40315,1.11331-0.94777,1.11331-1.53626c0-2.39214,2.85115-3.43968,2.85115-7.54843
		C22.54545,11.9853,19.61648,9.18082,16.00284,9.18082L16.00284,9.18082z M19.41774,19.32649
		c-0.65214,0.95839-1.38986,2.03918-1.43375,3.52807c-0.22421,0.24897-1.02274,0.65497-1.97835,0.65497
		c-0.95908,0-1.75695-0.406-1.98115-0.65782c-0.04669-1.48605-0.78442-2.56964-1.43658-3.52522
		c-0.72922-1.06662-1.41743-2.07527-1.41743-3.8789c0-2.51166,2.16862-4.55651,4.83235-4.55651s4.8295,2.04485,4.8295,4.55651
		C20.83234,17.25122,20.14416,18.25986,19.41774,19.32649L19.41774,19.32649z M19.41774,19.32649"/>
	<path d="M16.00284,6.98178c0.46964,0,0.85653-0.50855,0.85653-1.1303V3.83495c0-0.62455-0.3869-1.13311-0.85653-1.13311
		c-0.47248,0-0.85657,0.50855-0.85657,1.13311v2.01653C15.14626,6.47323,15.53035,6.98178,16.00284,6.98178L16.00284,6.98178z
		 M16.00284,6.98178"/>
	<path d="M11.61538,8.15872c0.40883-0.23763,0.48591-0.87069,0.174-1.40895l-1.00582-1.74637
		c-0.31191-0.53895-0.90039-0.78722-1.30922-0.55239C9.06765,4.68584,8.9877,5.32099,9.29963,5.85998l1.00862,1.74635
		C10.61807,8.14461,11.20656,8.39357,11.61538,8.15872L11.61538,8.15872z M11.61538,8.15872"/>
	<path d="M7.85248,10.06211L6.10611,9.05348c-0.53895-0.31193-1.17412-0.232-1.40895,0.17471
		c-0.23485,0.40883,0.01343,0.99731,0.55241,1.30639l1.74635,1.00862c0.53828,0.31193,1.17131,0.23485,1.40614-0.17398
		C8.63687,10.96041,8.39073,10.37192,7.85248,10.06211L7.85248,10.06211z M7.85248,10.06211"/>
	<path d="M26.7561,20.97592l-1.74635-1.00862c-0.53828-0.31191-1.17416-0.23198-1.40899,0.17685
		c-0.23481,0.40598,0.01416,0.99446,0.55242,1.30711l1.74635,1.00862c0.53899,0.30908,1.17131,0.232,1.40897-0.17683
		C27.54332,21.87353,27.29506,21.28785,26.7561,20.97592L26.7561,20.97592z M26.7561,20.97592"/>
	<path d="M7.22793,15.75669c0-0.47251-0.50855-0.85658-1.13028-0.85658H4.08109c-0.62455,0-1.13311,0.38407-1.13311,0.85658
		c0,0.46964,0.50855,0.85655,1.13311,0.85655h2.01655C6.71937,16.61324,7.22793,16.22632,7.22793,15.75669L7.22793,15.75669z
		 M7.22793,15.75669"/>
	<path d="M27.92456,14.90011h-2.01653c-0.62173,0-1.13313,0.38407-1.13313,0.85658c0,0.46964,0.5114,0.85655,1.13313,0.85655
		h2.01653c0.62175,0,1.13028-0.38692,1.13028-0.85655C29.05484,15.28418,28.54631,14.90011,27.92456,14.90011L27.92456,14.90011z
		 M27.92456,14.90011"/>
	<path d="M6.99593,19.96729l-1.74635,1.00862c-0.53899,0.31193-0.78726,0.89761-0.55241,1.30713
		c0.23483,0.40883,0.86715,0.48591,1.40895,0.17683l1.74354-1.00862c0.54108-0.31264,0.78722-0.90113,0.55241-1.30711
		C8.16724,19.73532,7.5342,19.65539,6.99593,19.96729L6.99593,19.96729z M6.99593,19.96729"/>
	<path d="M25.00975,11.54321l1.74635-1.00862c0.53897-0.30908,0.78722-0.89757,0.55239-1.30639
		c-0.23766-0.40671-0.86998-0.48664-1.40897-0.17471l-1.74635,1.00862c-0.53826,0.30982-0.78722,0.8983-0.55242,1.30713
		C23.83559,11.77806,24.47147,11.85514,25.00975,11.54321L25.00975,11.54321z M25.00975,11.54321"/>
	<path d="M22.52919,4.45102c-0.40954-0.23483-0.99802,0.01345-1.30711,0.55239l-1.00862,1.74637
		c-0.31193,0.53825-0.232,1.17131,0.17683,1.40614c0.40598,0.23766,0.99446-0.01131,1.30709-0.54959L22.706,5.85716
		C23.01513,5.31819,22.93802,4.68584,22.52919,4.45102L22.52919,4.45102z M22.52919,4.45102"/>
</g>
</svg>
