<svg width="54" height="44" viewBox="0 0 54 44" fill="none" xmlns="http://www.w3.org/2000/svg">
<path opacity="0.9" d="M54 5.20305C51.9762 6.0994 49.8323 6.68862 47.6377 6.95161C49.9496 5.56953 51.6821 3.38267 52.5096 0.80192C50.3355 2.09804 47.9574 3.0083 45.4786 3.49315C43.957 1.87348 41.9907 0.749727 39.8321 0.266076C37.6735 -0.217575 35.4209 -0.0390678 33.3635 0.778695C31.306 1.59646 29.5375 3.01618 28.2848 4.85571C27.0321 6.69525 26.3524 8.87069 26.3328 11.1029C26.3336 11.9552 26.4325 12.8044 26.6274 13.6336C22.2262 13.4187 17.9186 12.2745 13.9826 10.2748C10.0466 8.27512 6.56961 5.46442 3.77614 2.02413C2.79122 3.71828 2.27259 5.64737 2.27393 7.61178C2.18045 9.40366 2.53635 11.1904 3.30867 12.8065C4.08099 14.4226 5.24476 15.8158 6.69219 16.8571C4.79211 16.699 2.92997 16.231 1.1782 15.4714V15.6111C1.29237 18.2322 2.28341 20.7367 3.98949 22.7157C5.69556 24.6946 8.01585 26.0311 10.5714 26.5069C9.70451 26.7677 8.80444 26.899 7.89985 26.8965C7.24192 26.8974 6.58561 26.8307 5.94109 26.6972C6.66774 28.9167 8.05997 30.8531 9.92498 32.2384C11.79 33.6236 14.0355 34.3891 16.3505 34.4289C12.4333 37.5224 7.60058 39.198 2.62739 39.1869C1.74898 39.1821 0.871634 39.1245 0 39.0144C5.07572 42.2794 10.9713 44.0089 16.9897 43.9984C21.1224 44.0402 25.2222 43.2526 29.0509 41.6813C32.8795 40.11 36.3608 37.7864 39.2926 34.8454C42.2243 31.9044 44.548 28.4046 46.1288 24.5493C47.7095 20.6941 48.5158 16.5601 48.5007 12.3876C48.5007 11.9088 48.5007 11.4301 48.4713 10.9513C50.6386 9.38294 52.5109 7.43627 54 5.20305Z" fill="#45364D"/>
</svg>
